PathFileType	4	(X/Y/Z)	Walk9.trc
DataRate	CameraRate	NumFrames	NumMarkers	Units	OrigDataRate	OrigDataStartFrame	OrigNumFrames
200.000000	200.000000	8	61	mm	200.000000	399	503
Frame#	Times		LFHD		RFHD		CLAV		LASI		RASI		RACR1		RUA1		RFA1		RWRR		RCAR		LACR1		LUA1		LWRU		RTH3		RTB4		LTH1		LTH3		LTH4		LTB1		LTB2		LTB4		LLFC		RTB1		LCAR		LFA1		RTB3		STRN		RMFC		RMT5		RToe		RLFC		LTH2		RTH2		RMT1		LBHD		LTB3		RTB2		LWRR		LElbow		RMMAL		RTH4		RWRU		RLMAL		RCAL		LPSI		RElbow		RTH1		RBHD		T10		RPSI		RBack		LMFC		C7		RElbowM		LElbowM		LLMAL		LCAL		LMT5		LToe		LMT1		LMMAL
			X1	Y1	Z1	X2	Y2	Z2	X3	Y3	Z3	X4	Y4	Z4	X5	Y5	Z5	X6	Y6	Z6	X7	Y7	Z7	X8	Y8	Z8	X9	Y9	Z9	X10	Y10	Z10	X11	Y11	Z11	X12	Y12	Z12	X13	Y13	Z13	X14	Y14	Z14	X15	Y15	Z15	X16	Y16	Z16	X17	Y17	Z17	X18	Y18	Z18	X19	Y19	Z19	X20	Y20	Z20	X21	Y21	Z21	X22	Y22	Z22	X23	Y23	Z23	X24	Y24	Z24	X25	Y25	Z25	X26	Y26	Z26	X27	Y27	Z27	X28	Y28	Z28	X29	Y29	Z29	X30	Y30	Z30	X31	Y31	Z31	X32	Y32	Z32	X33	Y33	Z33	X34	Y34	Z34	X35	Y35	Z35	X36	Y36	Z36	X37	Y37	Z37	X38	Y38	Z38	X39	Y39	Z39	X40	Y40	Z40	X41	Y41	Z41	X42	Y42	Z42	X43	Y43	Z43	X44	Y44	Z44	X45	Y45	Z45	X46	Y46	Z46	X47	Y47	Z47	X48	Y48	Z48	X49	Y49	Z49	X50	Y50	Z50	X51	Y51	Z51	X52	Y52	Z52	X53	Y53	Z53	X54	Y54	Z54	X55	Y55	Z55	X56	Y56	Z56	X57	Y57	Z57	X58	Y58	Z58	X59	Y59	Z59	X60	Y60	Z60	X61	Y61	Z61

399	1.995	728.73	1580.9	-69.304	724.93	1585.5	30.101	689.3	1302	-14.94	663.93	894.41	-115.28	657.53	912.15	135.01	628.37	1341.7	153.43	636.9	1175.2	213.47	750.22	918.03	261.6	845.39	850.63	209.78	879.51	786.29	250.21	609.58	1345	-169.3	545.04	1177.4	-212.6	449.18	779.33	-225.5	520.5	590.3	166.34	422.73	258.07	94.815	646.67	731.15	-185.85	702.53	570.76	-156.39	673.96	650.08	-172.65	822.88	372.1	-65.707	829.67	282.34	-122.07	842.74	288.11	-62.422	754.13	448.15	-129.28	456.4	337.9	105.5	388	728.65	-239.5	438.94	906.36	-229.62	386.67	180.66	80.317	708.34	1166.3	-8.9336	441.21	451.22	9.4572	382.73	26.214	101.1	474.96	23.939	53.703	471.46	445.81	137.93	725.15	674.01	-149.96	597	660.55	159.47	422.48	31.522	17.918	589.33	1509.5	-93.484	867.71	207.25	-57.652	375.56	274.21	131.54	387.22	801.95	-203.75	476.6	1035.3	-208.5	319.65	113.83	7.6593	544.82	668.67	185.06	807.74	813.3	253.13	294.63	97.582	85.447	242.42	87.132	38.565	487.51	951.96	-50.48	649.67	1010.2	255.86	571.91	748.58	207.51	586.37	1522.8	50.812	501.12	1199.7	1.1506	487.5	954.15	49.268	504.82	1286.7	68.507	734.57	428.82	2.0064	582.77	1408	-12.99	612.02	995.44	185.84	482.09	1020.8	-135.45	857.41	82.328	-100.82	819	32.925	-55.238	974.27	78.881	-107	1051.7	118.38	-62.718	1000.1	102.01	-33.392	864.02	105.4	-20.743
400	2	736.29	1580	-69.768	732.5	1584.6	29.635	696.93	1301.2	-15.367	672.38	893.36	-115.34	665.24	911.29	135.01	635.72	1340.8	152.94	644.42	1174.4	213	758.3	917.63	261.06	853.78	850.77	209.11	888.26	786.57	249.47	617.3	1344	-169.84	552.09	1176.8	-213.19	454.65	779.1	-226.27	526.52	590.08	166.25	425.78	258.4	95.062	655.05	730.27	-186.28	710.16	569.61	-156.72	681.99	649.06	-173.08	831.08	371.71	-65.704	839.2	281.98	-122.06	852.13	287.96	-62.409	761.55	446.92	-129.32	460.39	337.8	105.7	393.18	728.6	-240	444.98	906.18	-230.23	388.84	181.35	80.644	716.14	1165.5	-9.2656	446.81	451.29	9.4719	382.91	26.35	101.17	474.93	23.957	53.604	476.65	445.7	138.02	733.06	672.78	-149.83	603.45	659.9	159.57	422.56	31.468	17.942	596.89	1508.6	-93.909	878.23	207.39	-57.607	378.75	275.11	131.7	392.84	801.96	-204.3	483.22	1034.9	-209.04	320.97	115.27	8.0923	551.29	668.32	185.02	816.36	813.23	252.47	295.8	99.356	85.879	243.45	89.576	39.073	495.8	951.01	-51.445	657.34	1009.3	255.46	578.77	748.13	207.39	593.93	1521.9	50.417	508.92	1198.7	0.51083	495.47	953.13	48.31	512.35	1285.6	67.843	741.31	427.18	1.8258	590.26	1407	-13.534	619.65	994.53	185.45	488.77	1020.3	-136.03	869.62	82.261	-100.69	831.74	32.384	-55.087	986.65	80.09	-106.83	1063.6	120.79	-62.393	1012.2	103.62	-33.279	875.87	105.49	-20.673
401	2.005	743.84	1579.1	-70.234	740.05	1583.8	29.169	704.57	1300.3	-15.833	680.86	892.32	-115.42	673.05	910.42	134.97	643.06	1339.9	152.41	651.9	1173.5	212.51	766.28	917.19	260.54	862.07	850.84	208.48	896.88	786.78	248.79	625.02	1343	-170.42	559.24	1176.2	-213.84	460.39	778.8	-227.13	532.73	589.81	166.15	428.97	258.71	95.345	663.52	729.46	-186.67	717.94	568.56	-156.93	690.13	648.12	-173.42	839.17	371.18	-65.695	848.27	281.46	-122	861.13	287.63	-62.356	769.05	445.75	-129.33	464.56	337.67	105.92	398.67	728.48	-240.63	451.23	905.92	-230.96	391.13	182.06	81.02	723.98	1164.7	-9.6356	452.59	451.32	9.5278	383.13	26.482	101.26	474.9	23.98	53.496	482.08	445.53	138.14	741.08	671.68	-149.67	610.07	659.24	159.63	422.63	31.409	17.976	604.45	1507.8	-94.364	888.11	207.3	-57.501	382.13	276	131.92	398.71	801.89	-205	490.01	1034.4	-209.69	322.37	116.77	8.5971	557.95	667.93	184.98	824.85	813.11	251.85	297.07	101.2	86.389	244.56	92.13	39.666	504.13	950.08	-52.399	664.94	1008.5	255.05	585.8	747.65	207.25	601.47	1521.1	49.988	516.75	1197.6	-0.16354	503.51	952.13	47.365	519.9	1284.6	67.13	748.22	425.71	1.6777	597.75	1406	-14.112	627.25	993.61	185.04	495.57	1019.8	-136.71	880.75	82.024	-100.44	843.31	31.828	-54.808	997.92	80.791	-106.62	1074.4	122.46	-62.099	1023.2	104.64	-33.138	886.78	105.38	-20.499
402	2.01	751.41	1578.3	-70.702	747.6	1582.9	28.702	712.23	1299.5	-16.338	689.37	891.29	-115.51	680.95	909.53	134.9	650.4	1338.9	151.85	659.33	1172.6	211.99	774.17	916.73	260.03	870.25	850.85	207.9	905.37	786.92	248.17	632.74	1342.1	-171.03	566.5	1175.6	-214.54	466.4	778.44	-228.07	539.15	589.49	166.05	432.32	259.01	95.669	672.06	728.72	-187.01	725.87	567.64	-157.02	698.39	647.28	-173.68	847.16	370.5	-65.678	856.9	280.76	-121.89	869.77	287.1	-62.262	776.64	444.62	-129.31	468.93	337.49	106.17	404.47	728.27	-241.4	457.72	905.6	-231.8	393.54	182.78	81.448	731.86	1164	-10.045	458.56	451.32	9.6258	383.37	26.61	101.37	474.85	24.006	53.382	487.74	445.32	138.28	749.22	670.7	-149.5	616.88	658.55	159.66	422.69	31.346	18.019	612.02	1506.9	-94.851	897.36	206.96	-57.328	385.69	276.91	132.18	404.82	801.74	-205.85	496.94	1033.9	-210.43	323.86	118.31	9.1759	564.79	667.5	184.91	833.21	812.93	251.26	298.46	103.1	86.978	245.79	94.804	40.343	512.51	949.19	-53.339	672.47	1007.6	254.62	592.99	747.14	207.07	609.01	1520.2	49.523	524.61	1196.5	-0.87204	511.64	951.16	46.439	527.45	1283.5	66.367	755.33	424.41	1.5638	605.24	1405.1	-14.723	634.81	992.68	184.61	502.49	1019.2	-137.49	890.81	81.592	-100.06	853.71	31.238	-54.403	1008.1	80.948	-106.36	1084.3	123.34	-61.835	1033.3	105.05	-32.958	896.76	105.07	-20.218
403	2.015	758.97	1577.4	-71.17	755.13	1582.1	28.235	719.91	1298.7	-16.881	697.91	890.29	-115.63	688.93	908.63	134.79	657.75	1338	151.26	666.73	1171.7	211.44	781.98	916.24	259.54	878.33	850.79	207.36	913.72	786.98	247.6	640.47	1341.2	-171.67	573.87	1174.9	-215.3	472.69	778.02	-229.1	545.79	589.11	165.96	435.83	259.29	96.034	680.66	728.04	-187.32	733.96	566.82	-157	706.75	646.52	-173.84	855.06	369.68	-65.651	865.1	279.88	-121.71	878.05	286.38	-62.124	784.33	443.56	-129.27	473.5	337.26	106.45	410.57	727.98	-242.31	464.43	905.2	-232.75	396.1	183.51	81.93	739.77	1163.2	-10.494	464.72	451.27	9.7665	383.64	26.736	101.5	474.79	24.034	53.259	493.65	445.04	138.43	757.48	669.85	-149.31	623.88	657.83	159.66	422.74	31.279	18.072	619.59	1506.1	-95.37	905.98	206.36	-57.087	389.46	277.81	132.51	411.17	801.51	-206.85	504.04	1033.4	-211.26	325.46	119.89	9.8301	571.82	667.02	184.83	841.45	812.7	250.72	299.96	105.08	87.646	247.13	97.606	41.104	520.92	948.34	-54.259	679.94	1006.8	254.17	600.35	746.6	206.86	616.53	1519.4	49.024	532.51	1195.4	-1.6139	519.84	950.22	45.536	535.03	1282.4	65.556	762.64	423.28	1.4865	612.73	1404.1	-15.368	642.33	991.75	184.14	509.53	1018.6	-138.36	899.81	80.952	-99.559	862.94	30.608	-53.882	1017.1	80.539	-106.05	1093.2	123.39	-61.593	1042.4	104.82	-32.73	905.81	104.53	-19.833
404	2.02	766.53	1576.6	-71.641	762.65	1581.3	27.767	727.61	1297.9	-17.463	706.46	889.31	-115.78	697.01	907.71	134.64	665.1	1337.1	150.64	674.08	1170.8	210.88	789.69	915.71	259.06	886.3	850.66	206.87	921.92	786.96	247.09	648.21	1340.2	-172.35	581.36	1174.2	-216.11	479.25	777.54	-230.21	552.64	588.67	165.86	439.51	259.54	96.443	689.31	727.43	-187.58	742.18	566.12	-156.88	715.2	645.86	-173.93	862.9	368.72	-65.612	872.9	278.83	-121.46	886	285.47	-61.939	792.13	442.57	-129.2	478.28	336.98	106.75	416.99	727.61	-243.36	471.37	904.74	-233.8	398.8	184.25	82.469	747.71	1162.5	-10.986	471.09	451.16	9.9504	383.94	26.862	101.65	474.71	24.061	53.128	499.82	444.7	138.62	765.84	669.11	-149.13	631.06	657.08	159.62	422.78	31.208	18.133	627.17	1505.3	-95.922	914.02	205.51	-56.776	393.43	278.72	132.88	417.76	801.19	-207.99	511.29	1032.8	-212.19	327.19	121.53	10.561	579.04	666.5	184.72	849.55	812.42	250.22	301.61	107.13	88.391	248.61	100.54	41.947	529.37	947.54	-55.154	687.35	1005.9	253.7	607.88	746.01	206.61	624.04	1518.5	48.491	540.44	1194.3	-2.388	528.11	949.3	44.664	542.62	1281.2	64.699	770.18	422.33	1.4485	620.23	1403.2	-16.047	649.81	990.82	183.65	516.69	1017.9	-139.32	907.79	80.106	-98.945	871.05	29.94	-53.262	1025.2	79.563	-105.68	1101.2	122.59	-61.359	1050.5	103.94	-32.442	913.98	103.77	-19.35
405	2.025	774.09	1575.9	-72.113	770.15	1580.5	27.298	735.33	1297.2	-18.083	715.02	888.37	-115.96	705.18	906.78	134.45	672.47	1336.1	149.99	681.4	1169.9	210.28	797.32	915.16	258.6	894.16	850.46	206.43	929.99	786.87	246.65	655.96	1339.3	-173.06	588.96	1173.4	-216.97	486.09	776.99	-231.41	559.73	588.16	165.77	443.39	259.77	96.897	697.99	726.87	-187.8	750.53	565.52	-156.68	723.71	645.28	-173.94	870.67	367.64	-65.553	880.32	277.62	-121.16	893.64	284.38	-61.704	800.02	441.64	-129.11	483.29	336.64	107.09	423.71	727.17	-244.55	478.53	904.21	-234.95	401.66	185.01	83.067	755.69	1161.9	-11.519	477.68	450.99	10.178	384.27	26.993	101.81	474.6	24.086	52.989	506.27	444.28	138.82	774.29	668.5	-148.97	638.44	656.3	159.55	422.81	31.137	18.202	634.76	1504.6	-96.507	921.5	204.42	-56.395	397.63	279.63	133.31	424.61	800.79	-209.28	518.7	1032.1	-213.21	329.06	123.22	11.368	586.45	665.92	184.59	857.53	812.09	249.75	303.41	109.25	89.213	250.26	103.62	42.87	537.84	946.79	-56.018	694.69	1005.1	253.22	615.57	745.39	206.33	631.53	1517.7	47.925	548.41	1193.2	-3.1932	536.46	948.43	43.827	550.24	1280.1	63.797	777.93	421.55	1.4528	627.75	1402.2	-16.758	657.26	989.9	183.14	523.98	1017.2	-140.37	914.82	79.065	-98.232	878.07	29.251	-52.566	1032.2	78.035	-105.26	1108.3	120.96	-61.113	1057.8	102.41	-32.086	921.31	102.78	-18.777
406	2.03	781.65	1575.2	-72.587	777.64	1579.7	26.827	743.08	1296.5	-18.741	723.6	887.47	-116.17	713.43	905.84	134.2	679.86	1335.2	149.31	688.68	1169.1	209.66	804.85	914.59	258.16	901.92	850.19	206.03	937.91	786.7	246.27	663.72	1338.5	-173.8	596.67	1172.7	-217.89	493.21	776.39	-232.7	567.06	587.57	165.68	447.47	259.97	97.399	706.68	726.37	-188	758.98	565.02	-156.41	732.29	644.77	-173.89	878.37	366.46	-65.469	887.4	276.28	-120.79	900.98	283.14	-61.418	808.01	440.8	-129	488.55	336.24	107.47	430.73	726.65	-245.88	485.92	903.62	-236.2	404.7	185.78	83.724	763.72	1161.2	-12.096	484.5	450.74	10.448	384.63	27.134	101.99	474.48	24.106	52.842	513.02	443.79	139.04	782.83	667.99	-148.84	646.02	655.49	159.45	422.84	31.068	18.28	642.35	1503.9	-97.124	928.46	203.1	-55.943	402.07	280.54	133.79	431.71	800.31	-210.69	526.27	1031.4	-214.32	331.1	124.96	12.251	594.05	665.29	184.44	865.37	811.7	249.33	305.37	111.45	90.109	252.11	106.85	43.87	546.33	946.1	-56.846	701.98	1004.2	252.71	623.41	744.73	206	639.01	1516.9	47.325	556.42	1192.1	-4.0282	544.86	947.59	43.032	557.88	1279	62.854	785.89	420.95	1.5017	635.27	1401.3	-17.503	664.66	988.99	182.59	531.41	1016.4	-141.5	920.96	77.856	-97.436	884.09	28.565	-51.822	1038.3	75.987	-104.78	1114.6	118.52	-60.833	1064.2	100.25	-31.654	927.84	101.58	-18.128
